<svg width="145" height="63" viewBox="0 0 145 63" fill="none" xmlns="http://www.w3.org/2000/svg">
<path d="M124.883 29.0997C124.883 26.1952 127.302 24.3309 130.011 24.3309C132.72 24.3309 134.959 26.1952 134.959 29.0997C134.959 32.0041 132.72 33.8685 130.011 33.8685C127.302 33.8685 124.883 32.0041 124.883 29.0997Z" fill="white"/>
<path d="M119.718 11.0998L114.264 28.8487H113.109C114.806 24.259 114.77 20.4581 113.867 18.0558L111.23 11.0998H102.995L111.591 32.8287C111.085 33.5818 110.58 33.7251 109.749 33.7251C108.882 33.7251 107.582 33.3307 106.282 32.5777L103.826 38.0638C105.993 39.1754 108.304 40 111.085 40C115.565 40 117.659 37.9203 119.61 32.7212L127.772 11.0998H119.718ZM95.0135 15.5816H94.0019L94.5798 11.0998H86.7783V33.2948H94.5798V26.303C94.5798 21.2111 96.9277 18.8806 101.045 18.8806H101.695V10.6335C97.9392 10.4904 95.9161 12.4622 95.0135 15.5816ZM50.9491 10.526C47.3377 10.526 45.207 12.1037 43.4738 16.0479H42.2817C43.6896 13.4661 43.8706 11.2431 43.8706 8.62566V4H36.0692C36.0692 7.15543 32.7818 8.01604 30.615 6.86862C27.2922 5.11158 24.0055 4 20.1049 4C13.3511 4 8.8725 7.65739 8.8725 13.1795C8.8725 19.2034 13.6398 21.0319 19.8155 22.3228C24.2588 23.2549 25.2336 23.9004 25.2336 25.2271C25.2336 26.4463 24.0777 27.1636 21.4772 27.1636C18.1185 27.1636 14.8318 25.9442 11.9781 23.6852L7.5 28.992C11.0761 32.1832 15.951 33.761 21.0797 33.761C28.7369 33.761 33.3605 30.2472 33.3605 24.3667C33.3605 18.9164 29.2066 16.8007 21.983 15.3665C17.9381 14.5777 16.9994 13.8964 16.9994 12.5699C16.9994 11.4583 18.0463 10.6335 19.9966 10.6335C22.2357 10.6335 24.4025 11.2791 27.22 13.0717C30.1821 14.9364 34.1183 15.008 36.0692 12.9282V33.2948H43.8706V21.2831C43.8706 18.8087 45.2792 17.4822 47.1573 17.4822C49.1076 17.4822 50.3718 18.8087 50.3718 21.2831V33.2948H58.1732V18.7729C58.1732 13.6813 55.3196 10.526 50.9491 10.526ZM72.4398 10.6335C65.3245 10.6335 60.2319 15.761 60.2319 22.2152C60.2319 28.6693 65.3245 33.761 72.4398 33.761C79.5551 33.761 84.7921 28.6693 84.7921 22.2152C84.7921 15.761 79.5551 10.6335 72.4398 10.6335ZM72.4759 27.1276C69.7311 27.1276 67.8169 25.0121 67.8169 22.2152C67.8169 19.4544 69.7311 17.2668 72.4759 17.2668C75.2207 17.2668 77.2071 19.4544 77.2071 22.2152C77.2071 25.0121 75.2207 27.1276 72.4759 27.1276Z" fill="white"/>
<path d="M2.98584 49.27V59H1.38984V49.27H2.98584ZM8.97325 51.16C9.57992 51.16 10.1213 51.286 10.5973 51.538C11.0826 51.79 11.4606 52.1633 11.7313 52.658C12.0019 53.1527 12.1373 53.75 12.1373 54.45V59H10.5553V54.688C10.5553 53.9973 10.3826 53.47 10.0373 53.106C9.69192 52.7327 9.22058 52.546 8.62325 52.546C8.02592 52.546 7.54992 52.7327 7.19525 53.106C6.84992 53.47 6.67725 53.9973 6.67725 54.688V59H5.08125V51.286H6.67725V52.168C6.93858 51.8507 7.26992 51.6033 7.67125 51.426C8.08192 51.2487 8.51592 51.16 8.97325 51.16ZM16.973 59.126C16.3664 59.126 15.8204 59.0187 15.335 58.804C14.859 58.58 14.481 58.2813 14.201 57.908C13.921 57.5253 13.7717 57.1007 13.753 56.634H15.405C15.433 56.9607 15.587 57.236 15.867 57.46C16.1564 57.6747 16.5157 57.782 16.945 57.782C17.393 57.782 17.7384 57.698 17.981 57.53C18.233 57.3527 18.359 57.1287 18.359 56.858C18.359 56.5687 18.219 56.354 17.939 56.214C17.6684 56.074 17.2344 55.92 16.637 55.752C16.0584 55.5933 15.587 55.4393 15.223 55.29C14.859 55.1407 14.5417 54.912 14.271 54.604C14.0097 54.296 13.879 53.89 13.879 53.386C13.879 52.9753 14.0004 52.602 14.243 52.266C14.4857 51.9207 14.831 51.65 15.279 51.454C15.7364 51.258 16.259 51.16 16.847 51.16C17.7244 51.16 18.429 51.384 18.961 51.832C19.5024 52.2707 19.7917 52.8727 19.829 53.638H18.233C18.205 53.2927 18.065 53.0173 17.813 52.812C17.561 52.6067 17.2204 52.504 16.791 52.504C16.371 52.504 16.049 52.5833 15.825 52.742C15.601 52.9007 15.489 53.1107 15.489 53.372C15.489 53.5773 15.5637 53.75 15.713 53.89C15.8624 54.03 16.0444 54.142 16.259 54.226C16.4737 54.3007 16.791 54.3987 17.211 54.52C17.771 54.6693 18.2284 54.8233 18.583 54.982C18.947 55.1313 19.2597 55.3553 19.521 55.654C19.7824 55.9527 19.9177 56.3493 19.927 56.844C19.927 57.2827 19.8057 57.6747 19.563 58.02C19.3204 58.3653 18.975 58.636 18.527 58.832C18.0884 59.028 17.5704 59.126 16.973 59.126ZM28.6376 51.286V59H27.0416V58.09C26.7896 58.4073 26.4582 58.6593 26.0476 58.846C25.6462 59.0233 25.2169 59.112 24.7596 59.112C24.1529 59.112 23.6069 58.986 23.1216 58.734C22.6456 58.482 22.2676 58.1087 21.9876 57.614C21.7169 57.1193 21.5816 56.522 21.5816 55.822V51.286H23.1636V55.584C23.1636 56.2747 23.3362 56.8067 23.6816 57.18C24.0269 57.544 24.4982 57.726 25.0956 57.726C25.6929 57.726 26.1642 57.544 26.5096 57.18C26.8642 56.8067 27.0416 56.2747 27.0416 55.584V51.286H28.6376ZM32.3394 52.406C32.5727 52.014 32.8807 51.7107 33.2634 51.496C33.6554 51.272 34.1174 51.16 34.6494 51.16V52.812H34.2434C33.618 52.812 33.142 52.9707 32.8154 53.288C32.498 53.6053 32.3394 54.156 32.3394 54.94V59H30.7434V51.286H32.3394V52.406ZM35.5844 55.108C35.5844 54.3333 35.7431 53.6473 36.0604 53.05C36.3871 52.4527 36.8257 51.9907 37.3764 51.664C37.9364 51.328 38.5524 51.16 39.2244 51.16C39.8311 51.16 40.3584 51.2813 40.8064 51.524C41.2637 51.7573 41.6277 52.0513 41.8984 52.406V51.286H43.5084V59H41.8984V57.852C41.6277 58.216 41.2591 58.5193 40.7924 58.762C40.3257 59.0047 39.7937 59.126 39.1964 59.126C38.5337 59.126 37.9271 58.958 37.3764 58.622C36.8257 58.2767 36.3871 57.8007 36.0604 57.194C35.7431 56.578 35.5844 55.8827 35.5844 55.108ZM41.8984 55.136C41.8984 54.604 41.7864 54.142 41.5624 53.75C41.3477 53.358 41.0631 53.0593 40.7084 52.854C40.3537 52.6487 39.9711 52.546 39.5604 52.546C39.1497 52.546 38.7671 52.6487 38.4124 52.854C38.0577 53.05 37.7684 53.344 37.5444 53.736C37.3297 54.1187 37.2224 54.576 37.2224 55.108C37.2224 55.64 37.3297 56.1067 37.5444 56.508C37.7684 56.9093 38.0577 57.2173 38.4124 57.432C38.7764 57.6373 39.1591 57.74 39.5604 57.74C39.9711 57.74 40.3537 57.6373 40.7084 57.432C41.0631 57.2267 41.3477 56.928 41.5624 56.536C41.7864 56.1347 41.8984 55.668 41.8984 55.136ZM49.4967 51.16C50.1034 51.16 50.6447 51.286 51.1207 51.538C51.606 51.79 51.984 52.1633 52.2547 52.658C52.5254 53.1527 52.6607 53.75 52.6607 54.45V59H51.0787V54.688C51.0787 53.9973 50.906 53.47 50.5607 53.106C50.2154 52.7327 49.744 52.546 49.1467 52.546C48.5494 52.546 48.0734 52.7327 47.7187 53.106C47.3734 53.47 47.2007 53.9973 47.2007 54.688V59H45.6047V51.286H47.2007V52.168C47.462 51.8507 47.7934 51.6033 48.1947 51.426C48.6054 51.2487 49.0394 51.16 49.4967 51.16ZM54.1645 55.136C54.1645 54.3427 54.3232 53.6473 54.6405 53.05C54.9672 52.4433 55.4152 51.9767 55.9845 51.65C56.5538 51.3233 57.2072 51.16 57.9445 51.16C58.8778 51.16 59.6478 51.384 60.2545 51.832C60.8705 52.2707 61.2858 52.9007 61.5005 53.722H59.7785C59.6385 53.3393 59.4145 53.0407 59.1065 52.826C58.7985 52.6113 58.4112 52.504 57.9445 52.504C57.2912 52.504 56.7685 52.7373 56.3765 53.204C55.9938 53.6613 55.8025 54.3053 55.8025 55.136C55.8025 55.9667 55.9938 56.6153 56.3765 57.082C56.7685 57.5487 57.2912 57.782 57.9445 57.782C58.8685 57.782 59.4798 57.376 59.7785 56.564H61.5005C61.2765 57.348 60.8565 57.9733 60.2405 58.44C59.6245 58.8973 58.8592 59.126 57.9445 59.126C57.2072 59.126 56.5538 58.9627 55.9845 58.636C55.4152 58.3 54.9672 57.8333 54.6405 57.236C54.3232 56.6293 54.1645 55.9293 54.1645 55.136ZM70.161 54.954C70.161 55.2433 70.1423 55.5047 70.105 55.738H64.211C64.2577 56.354 64.4863 56.8487 64.897 57.222C65.3077 57.5953 65.8117 57.782 66.409 57.782C67.2677 57.782 67.8743 57.4227 68.229 56.704H69.951C69.7177 57.4133 69.293 57.9967 68.677 58.454C68.0703 58.902 67.3143 59.126 66.409 59.126C65.6717 59.126 65.009 58.9627 64.421 58.636C63.8423 58.3 63.385 57.8333 63.049 57.236C62.7223 56.6293 62.559 55.9293 62.559 55.136C62.559 54.3427 62.7177 53.6473 63.035 53.05C63.3617 52.4433 63.8143 51.9767 64.393 51.65C64.981 51.3233 65.653 51.16 66.409 51.16C67.137 51.16 67.7857 51.3187 68.355 51.636C68.9243 51.9533 69.3677 52.4013 69.685 52.98C70.0023 53.5493 70.161 54.2073 70.161 54.954ZM68.495 54.45C68.4857 53.862 68.2757 53.3907 67.865 53.036C67.4543 52.6813 66.9457 52.504 66.339 52.504C65.7883 52.504 65.317 52.6813 64.925 53.036C64.533 53.3813 64.2997 53.8527 64.225 54.45H68.495ZM72.3756 59.098C72.0863 59.098 71.8436 59 71.6476 58.804C71.4516 58.608 71.3536 58.3653 71.3536 58.076C71.3536 57.7867 71.4516 57.544 71.6476 57.348C71.8436 57.152 72.0863 57.054 72.3756 57.054C72.6556 57.054 72.8936 57.152 73.0896 57.348C73.2856 57.544 73.3836 57.7867 73.3836 58.076C73.3836 58.3653 73.2856 58.608 73.0896 58.804C72.8936 59 72.6556 59.098 72.3756 59.098ZM83.9533 54.002C84.476 54.0953 84.9193 54.3707 85.2833 54.828C85.6473 55.2853 85.8293 55.8033 85.8293 56.382C85.8293 56.8767 85.6986 57.3247 85.4373 57.726C85.1853 58.118 84.8166 58.4307 84.3313 58.664C83.846 58.888 83.2813 59 82.6373 59H78.7453V49.27H82.4553C83.118 49.27 83.6873 49.382 84.1633 49.606C84.6393 49.83 84.9986 50.1333 85.2413 50.516C85.484 50.8893 85.6053 51.3093 85.6053 51.776C85.6053 52.336 85.456 52.8027 85.1573 53.176C84.8586 53.5493 84.4573 53.8247 83.9533 54.002ZM80.3413 53.358H82.3153C82.838 53.358 83.244 53.2413 83.5333 53.008C83.832 52.7653 83.9813 52.42 83.9813 51.972C83.9813 51.5333 83.832 51.1927 83.5333 50.95C83.244 50.698 82.838 50.572 82.3153 50.572H80.3413V53.358ZM82.4973 57.698C83.0386 57.698 83.4633 57.5673 83.7713 57.306C84.0793 57.0447 84.2333 56.6807 84.2333 56.214C84.2333 55.738 84.07 55.36 83.7433 55.08C83.4166 54.8 82.9826 54.66 82.4413 54.66H80.3413V57.698H82.4973ZM94.5497 51.286V59H92.9537V58.09C92.7017 58.4073 92.3703 58.6593 91.9597 58.846C91.5583 59.0233 91.129 59.112 90.6717 59.112C90.065 59.112 89.519 58.986 89.0337 58.734C88.5577 58.482 88.1797 58.1087 87.8997 57.614C87.629 57.1193 87.4937 56.522 87.4937 55.822V51.286H89.0757V55.584C89.0757 56.2747 89.2483 56.8067 89.5937 57.18C89.939 57.544 90.4103 57.726 91.0077 57.726C91.605 57.726 92.0763 57.544 92.4217 57.18C92.7763 56.8067 92.9537 56.2747 92.9537 55.584V51.286H94.5497ZM98.5175 52.588V56.858C98.5175 57.1473 98.5828 57.3573 98.7135 57.488C98.8535 57.6093 99.0868 57.67 99.4135 57.67H100.393V59H99.1335C98.4148 59 97.8641 58.832 97.4815 58.496C97.0988 58.16 96.9075 57.614 96.9075 56.858V52.588H95.9975V51.286H96.9075V49.368H98.5175V51.286H100.393V52.588H98.5175ZM108.609 51.16C109.207 51.16 109.734 51.2813 110.191 51.524C110.658 51.7573 111.022 52.0513 111.283 52.406V51.286H112.893V59.126C112.893 59.8353 112.744 60.4653 112.445 61.016C112.147 61.576 111.713 62.0147 111.143 62.332C110.583 62.6493 109.911 62.808 109.127 62.808C108.082 62.808 107.214 62.5607 106.523 62.066C105.833 61.5807 105.441 60.918 105.347 60.078H106.929C107.051 60.4793 107.307 60.8013 107.699 61.044C108.101 61.296 108.577 61.422 109.127 61.422C109.771 61.422 110.289 61.226 110.681 60.834C111.083 60.442 111.283 59.8727 111.283 59.126V57.838C111.013 58.202 110.644 58.51 110.177 58.762C109.72 59.0047 109.197 59.126 108.609 59.126C107.937 59.126 107.321 58.958 106.761 58.622C106.211 58.2767 105.772 57.8007 105.445 57.194C105.128 56.578 104.969 55.8827 104.969 55.108C104.969 54.3333 105.128 53.6473 105.445 53.05C105.772 52.4527 106.211 51.9907 106.761 51.664C107.321 51.328 107.937 51.16 108.609 51.16ZM111.283 55.136C111.283 54.604 111.171 54.142 110.947 53.75C110.733 53.358 110.448 53.0593 110.093 52.854C109.739 52.6487 109.356 52.546 108.945 52.546C108.535 52.546 108.152 52.6487 107.797 52.854C107.443 53.05 107.153 53.344 106.929 53.736C106.715 54.1187 106.607 54.576 106.607 55.108C106.607 55.64 106.715 56.1067 106.929 56.508C107.153 56.9093 107.443 57.2173 107.797 57.432C108.161 57.6373 108.544 57.74 108.945 57.74C109.356 57.74 109.739 57.6373 110.093 57.432C110.448 57.2267 110.733 56.928 110.947 56.536C111.171 56.1347 111.283 55.668 111.283 55.136ZM118.335 59.126C117.607 59.126 116.949 58.9627 116.361 58.636C115.773 58.3 115.311 57.8333 114.975 57.236C114.639 56.6293 114.471 55.9293 114.471 55.136C114.471 54.352 114.644 53.6567 114.989 53.05C115.335 52.4433 115.806 51.9767 116.403 51.65C117.001 51.3233 117.668 51.16 118.405 51.16C119.143 51.16 119.81 51.3233 120.407 51.65C121.005 51.9767 121.476 52.4433 121.821 53.05C122.167 53.6567 122.339 54.352 122.339 55.136C122.339 55.92 122.162 56.6153 121.807 57.222C121.453 57.8287 120.967 58.3 120.351 58.636C119.745 58.9627 119.073 59.126 118.335 59.126ZM118.335 57.74C118.746 57.74 119.129 57.642 119.483 57.446C119.847 57.25 120.141 56.956 120.365 56.564C120.589 56.172 120.701 55.696 120.701 55.136C120.701 54.576 120.594 54.1047 120.379 53.722C120.165 53.33 119.88 53.036 119.525 52.84C119.171 52.644 118.788 52.546 118.377 52.546C117.967 52.546 117.584 52.644 117.229 52.84C116.884 53.036 116.609 53.33 116.403 53.722C116.198 54.1047 116.095 54.576 116.095 55.136C116.095 55.9667 116.305 56.6107 116.725 57.068C117.155 57.516 117.691 57.74 118.335 57.74ZM127.263 59.126C126.535 59.126 125.877 58.9627 125.289 58.636C124.701 58.3 124.239 57.8333 123.903 57.236C123.567 56.6293 123.399 55.9293 123.399 55.136C123.399 54.352 123.572 53.6567 123.917 53.05C124.263 52.4433 124.734 51.9767 125.331 51.65C125.929 51.3233 126.596 51.16 127.333 51.16C128.071 51.16 128.738 51.3233 129.335 51.65C129.933 51.9767 130.404 52.4433 130.749 53.05C131.095 53.6567 131.267 54.352 131.267 55.136C131.267 55.92 131.09 56.6153 130.735 57.222C130.381 57.8287 129.895 58.3 129.279 58.636C128.673 58.9627 128.001 59.126 127.263 59.126ZM127.263 57.74C127.674 57.74 128.057 57.642 128.411 57.446C128.775 57.25 129.069 56.956 129.293 56.564C129.517 56.172 129.629 55.696 129.629 55.136C129.629 54.576 129.522 54.1047 129.307 53.722C129.093 53.33 128.808 53.036 128.453 52.84C128.099 52.644 127.716 52.546 127.305 52.546C126.895 52.546 126.512 52.644 126.157 52.84C125.812 53.036 125.537 53.33 125.331 53.722C125.126 54.1047 125.023 54.576 125.023 55.136C125.023 55.9667 125.233 56.6107 125.653 57.068C126.083 57.516 126.619 57.74 127.263 57.74ZM132.313 55.108C132.313 54.3333 132.472 53.6473 132.789 53.05C133.116 52.4527 133.554 51.9907 134.105 51.664C134.665 51.328 135.286 51.16 135.967 51.16C136.471 51.16 136.966 51.272 137.451 51.496C137.946 51.7107 138.338 52 138.627 52.364V48.64H140.237V59H138.627V57.838C138.366 58.2113 138.002 58.5193 137.535 58.762C137.078 59.0047 136.55 59.126 135.953 59.126C135.281 59.126 134.665 58.958 134.105 58.622C133.554 58.2767 133.116 57.8007 132.789 57.194C132.472 56.578 132.313 55.8827 132.313 55.108ZM138.627 55.136C138.627 54.604 138.515 54.142 138.291 53.75C138.076 53.358 137.792 53.0593 137.437 52.854C137.082 52.6487 136.7 52.546 136.289 52.546C135.878 52.546 135.496 52.6487 135.141 52.854C134.786 53.05 134.497 53.344 134.273 53.736C134.058 54.1187 133.951 54.576 133.951 55.108C133.951 55.64 134.058 56.1067 134.273 56.508C134.497 56.9093 134.786 57.2173 135.141 57.432C135.505 57.6373 135.888 57.74 136.289 57.74C136.7 57.74 137.082 57.6373 137.437 57.432C137.792 57.2267 138.076 56.928 138.291 56.536C138.515 56.1347 138.627 55.668 138.627 55.136ZM142.977 59.098C142.688 59.098 142.445 59 142.249 58.804C142.053 58.608 141.955 58.3653 141.955 58.076C141.955 57.7867 142.053 57.544 142.249 57.348C142.445 57.152 142.688 57.054 142.977 57.054C143.257 57.054 143.495 57.152 143.691 57.348C143.887 57.544 143.985 57.7867 143.985 58.076C143.985 58.3653 143.887 58.608 143.691 58.804C143.495 59 143.257 59.098 142.977 59.098Z" fill="white"/>
</svg>
